# File generated by ImageToStl.com - Free Image and 3D model conversion tools

mtllib fish_-_low_poly_-_rigged_-_animated.mtl

o obj1
v 1.27308272 1.61236368 -1.3436804
v 2.66847048 1.61075864 -2.59462697
v 2.69792065 1.61396812 -2.56097705
v 0.58106233 -6.91035532 1.4085293
v 0.49734662 -8.15540712 1.39109606
v 0.54489102 -7.6078727 1.30603051
v 0.5014973 -7.71875068 1.34609414
v 0.00736923 -0.73336585 3.25763598
v 1.2E-07 -1.39071341 3.95353171
v 0.01473844 -1.39071341 3.95353171
v -0.58106112 -6.91035542 1.4085293
v -0.4973452 -8.15540816 1.39109606
v -0.50149595 -7.7187522 1.3460939
v -0.54488963 -7.60787232 1.30603051
v 1.27308276 -0.32142253 -1.15923382
v 2.62874939 -0.2424531 -2.38310201
v 2.65819957 -0.23924354 -2.34945209
v 2.62874907 3.46397038 -2.73662431
v 1.27308243 3.54614957 -1.52812663
v 2.65819924 3.46717998 -2.70297439
v -2.66847076 1.61075817 -2.59462721
v -1.27003648 1.61203134 -1.34716131
v -2.69182791 1.61330365 -2.56793911
v -2.62874935 -0.24245356 -2.38310201
v -1.27003632 -0.32175478 -1.16271473
v -2.6521065 -0.23990804 -2.35641391
v -1.27003665 3.54581723 -1.53160754
v -2.62874967 3.46396992 -2.73662431
v -2.65210682 3.46651528 -2.70993622
v 3.8E-07 -4.39655265 3.06080025
v 0.00736981 -7.44081423 1.60259803
v 0.01473871 -4.39655265 3.06080025
v -6E-08 0.70759328 4.40643801
v 0.00736899 1.96891014 3.70547986
v 0.01473826 0.70759328 4.40643801
v 5.5E-07 -6.31468873 2.72509525
v 0.00736983 -7.69850225 1.63109373
v 0.01473887 -6.31468872 2.72509525
v 0.00736949 -3.80436825 2.51732196
v 0.00736878 4.36343105 3.95041814
v -2.1E-07 2.43055662 4.63784159
v 0.01473811 2.43055662 4.63784159
v 5E-08 -0.52942469 -3.46911785
v 0.5611301 -0.55134346 -3.41951081
v 0.47488675 -2.89164698 -2.77435773
v 2.5E-07 -2.85090559 -2.81113618
v 0.9619923 -0.70477559 -3.07226035
v 0.78745541 -3.2296324 -2.50565328
v 0.61214079 -4.85932505 -2.18323248
v 0.3757271 -4.99339308 -2.22717158
v 4.4E-07 -5.02179449 -2.23400489
v 1.12397026 -1.02491031 1.08733519
v 1.08988022 -1.05674054 2.11114266
v 0.79054075 -4.82199365 1.55127283
v 0.85912961 -4.33587884 0.8123337
v 0.93524211 -0.86364949 2.88780947
v 0.71476268 -4.0584347 2.21672958
v 0.5152813 -6.46446105 1.67780763
v 0.58106233 -6.91035532 1.4085293
v 0.71476268 -4.0584347 2.21672958
v 0.58069074 -7.36707234 1.25438639
v 0.58106233 -6.91035532 1.4085293
v 0.60109542 -7.22270047 0.71314595
v 0.85912961 -4.33587884 0.8123337
v 0.58069074 -7.36707234 1.25438639
v -8.7E-07 9.90714505 0.55926866
v -8.6E-07 9.79165236 1.14258175
v 0.59956401 9.67162869 1.17045802
v 0.60296224 9.77743587 0.57742717
v -7.9E-07 8.98319518 1.87015343
v 0.589369 8.8986892 1.87818707
v 0.94376767 8.48709773 1.91270393
v 1.03066811 8.83471381 1.37853508
v 1.04863068 8.86945888 0.70453688
v 0.93524211 -0.86364949 2.88780947
v 0.54154386 -0.74965129 3.21140758
v 0.4194929 -3.83435293 2.47858848
v 5.5E-07 -6.31793569 1.84833839
v 0.30006667 -6.32206508 1.81774679
v 0.5152813 -6.46446105 1.67780763
v 0.589369 8.8986892 1.87818707
v 0.59956418 6.99934839 2.7986804
v 1.03066816 6.90828964 2.52803719
v -7.9E-07 8.98319518 1.87015343
v -6.1E-07 7.01979512 2.83815679
v 0.60296265 4.39836082 3.75628343
v 1.04863107 4.39822151 3.1897685
v 1.20689655 6.82621441 1.88403516
v 1.23214161 4.23334585 2.35526635
v 1.23214139 6.71066802 0.98976469
v 1.25835741 4.05137075 1.24314008
v -7.7E-07 8.84671312 -1.9842285
v 0.58936901 8.75588809 -1.99754285
v 0.59956416 6.62808848 -3.07463956
v -5.8E-07 6.64527029 -3.10997391
v 0.94376769 8.31649604 -2.05529695
v 1.03066831 6.57653962 -2.79844953
v 1.04863111 3.96038257 -3.51783786
v 0.60296275 3.96038198 -3.90260108
v -3.5E-07 3.96038239 -3.95756776
v 1.030668 8.75588824 -1.44441941
v 1.20689657 6.61942461 -2.05433661
v 1.04863068 8.84671346 -0.72355129
v 1.2321414 6.61061716 -1.06323981
v 1.27308243 3.54614957 -1.52812663
v 1.23214164 3.92572959 -2.60222545
v 1.04863068 8.84955651 -0.00237769
v 1.2321414 6.64478275 -0.01153673
v 1.25835742 3.93710387 -0.02832007
v 6.9E-07 -7.86460729 -1.97811809
v 0.24917278 -7.83956998 -1.96321621
v 0.21734275 -8.71493339 -2.47892773
v 7.6E-07 -8.70515157 -2.4992882
v 0.45339603 -7.66430941 -1.8589018
v 0.37295099 -8.79687018 -2.35767591
v 0.3221205 -9.30154135 -2.8612323
v 0.20097097 -9.322486 -3.04092432
v 8.1E-07 -9.32693014 -3.07692862
v 0.3359752 -9.94131722 -1.25632014
v 0.33696583 -9.93496836 -0.00402647
v 0.1845185 -10.25797021 -0.00163766
v 0.18439469 -10.2587649 -1.35358415
v 0.33841732 -9.91388142 1.22410042
v 0.18469994 -10.25533589 1.3404746
v 9E-07 -10.30411348 1.35709965
v 9E-07 -10.30411471 -0.00129639
v 9E-07 -10.30411404 -1.36747882
v 1.27308276 -0.32142253 -1.15923382
v 1.14161215 -0.92878237 -0.00955762
v 0.87717764 -4.19195812 -0.00949556
v 0.8805645 -4.18322407 -0.88417654
v 1.12397026 -1.02491031 1.08733519
v 0.60109542 -7.22270047 0.71314595
v 0.60636703 -7.18369343 -0.0098004
v 0.60204283 -7.2037999 -0.79155463
v -7.7E-07 8.84671312 -1.9842285
v -8.5E-07 9.77459161 -1.15684348
v 0.59956389 9.64694617 -1.19108991
v 0.58936901 8.75588809 -1.99754285
v -8.7E-07 9.90714483 -0.55927132
v 0.60296224 9.77459178 -0.57980624
v -8.7E-07 9.90714494 -1.33E-06
v 0.60296224 9.77494667 -0.00029838
v 0.44885156 -9.03794329 -0.00855458
v 0.44601966 -9.05387558 -1.022499
v 0.45130375 -8.99802324 0.95405533
v 1.24510275 1.59317829 -0.0129493
v 1.24155925 1.6375573 1.26891083
v 1.21903204 1.58599778 -2.60632426
v 1.03780139 1.61501979 -3.5447724
v 1.11655805 -0.92366994 -2.23949479
v 0.59528543 1.96203205 3.64749313
v 1.03445766 1.90495424 3.26965717
v 1.21435926 1.75868633 2.42821108
v 1.08988022 -1.05674054 2.11114266
v 0.59773378 1.63419866 -3.93388486
v -1.4E-07 1.6369385 -3.98947215
v 0.60109542 -7.22270047 0.71314595
v 0.44912669 -8.92511657 1.84544136
v 0.45130375 -8.99802324 0.95405533
v 0.49734662 -8.15540712 1.39109606
v 0.49151729 -8.18881432 1.45075959
v 0.47254244 -8.43291673 1.69708999
v 0.49734662 -8.15540712 1.39109606
v 0.3987413 -8.54557516 2.07718094
v 0.37463377 -8.98463336 2.48090326
v 0.32876248 -9.31910496 2.88309254
v 0.34168002 -9.58081417 2.83573979
v 0.37463377 -8.98463336 2.48090326
v 0.3043598 -9.92413024 2.78020309
v 0.334214 -9.89208785 2.20114089
v 0.33841732 -9.91388142 1.22410042
v 0.45130375 -8.99802324 0.95405533
v 0.334214 -9.89208785 2.20114089
v 0.22874738 -8.58383081 2.3378318
v 0.2181753 -8.97582136 2.76813898
v 7.5E-07 -8.59522245 2.42462546
v 7.8E-07 -8.96880232 2.84529051
v 8.2E-07 -9.34099367 3.16071093
v 0.20383141 -9.34887101 3.1062137
v 0.334214 -9.89208785 2.20114089
v 0.18430416 -10.23353755 2.36436777
v 0.18431255 -10.1008203 2.9822154
v 8.8E-07 -10.13141513 3.02233171
v 9E-07 -10.28252495 2.3907724
v 0.45339603 -7.66430941 -1.8589018
v 0.24917278 -7.83956998 -1.96321621
v 0.30550165 -6.60807942 -1.89968379
v 0.57250959 -6.06882952 -1.87527302
v 5.8E-07 -6.68109752 -1.90442164
v 0.3757271 -4.99339308 -2.22717158
v 0.45339603 -7.66430941 -1.8589018
v 0.57211452 -7.32759317 -1.52546549
v 0.42491706 -9.13444029 -2.05844173
v 0.60204283 -7.2037999 -0.79155463
v 0.44601966 -9.05387558 -1.022499
v 0.3359752 -9.94131722 -1.25632014
v 0.32845891 -9.95668875 -2.2817969
v 0.44601966 -9.05387558 -1.022499
v 0.30001206 -9.97449302 -2.85956614
v 0.33436126 -9.64690115 -2.91801235
v 0.32845891 -9.95668875 -2.2817969
v 0.37295099 -8.79687018 -2.35767591
v 0.19334323 -9.79851922 -3.24730461
v 8.6E-07 -9.82069027 -3.29517428
v 0.33436126 -9.64690115 -2.91801235
v 0.30001206 -9.97449302 -2.85956614
v 0.18329963 -10.12300017 -3.03815331
v 8.9E-07 -10.15199762 -3.07391013
v 0.18352848 -10.24359406 -2.40172187
v 0.18329963 -10.12300017 -3.03815331
v 9E-07 -10.28510085 -2.42187539
v 8.9E-07 -10.15199762 -3.07391013
v 0.19533429 -9.75806782 3.19845313
v 0.34168002 -9.58081417 2.83573979
v 8.5E-07 -9.77356599 3.25322479
v 8.8E-07 -10.13141513 3.02233171
v 0.18431255 -10.1008203 2.9822154
v 0.3043598 -9.92413024 2.78020309
v 0.43044161 -7.47620554 1.47676179
v 0.41610913 -7.76576249 1.54725623
v 0.48810094 -7.91743248 1.42176917
v 0.49151729 -8.18881432 1.45075959
v 0.45339603 -7.66430941 -1.8589018
v 0.57250959 -6.06882952 -1.87527302
v 0.82740272 -4.41379456 -1.77968743
v 0.57211452 -7.32759317 -1.52546549
v 0.78745541 -3.2296324 -2.50565328
v 0.9619923 -0.70477559 -3.07226035
v 0.8805645 -4.18322407 -0.88417654
v 0.60204283 -7.2037999 -0.79155463
v 0.00736983 -7.69850225 1.63109373
v 0.23908436 -7.74660842 1.65603923
v 0.24795429 -7.41530676 1.56816168
v 0.00736981 -7.44081423 1.60259803
v 0.43044161 -7.47620554 1.47676179
v 0.5152813 -6.46446105 1.67780763
v 0.30006667 -6.32206508 1.81774679
v 0.41011597 -8.102563 1.77347485
v 0.47788561 -8.11088956 1.59302132
v 0.3987413 -8.54557516 2.07718094
v 0.47254244 -8.43291673 1.69708999
v 0.41011597 -8.102563 1.77347485
v 0.23530405 -8.13177403 1.94476214
v 7.1E-07 -8.15012654 2.00794652
v 0.41011597 -8.102563 1.77347485
v -0.4748863 -2.89164706 -2.77435773
v -0.56113001 -0.55134356 -3.41951081
v -0.37572623 -4.99339267 -2.22717158
v -0.61213994 -4.85932468 -2.18323272
v -0.78745485 -3.22963253 -2.50565328
v -0.96199211 -0.70477582 -3.07226035
v -1.1239702 -1.02491051 1.08733531
v -0.85912879 -4.33587899 0.81233382
v -0.79054002 -4.82199379 1.55127295
v -1.08988028 -1.05674073 2.11114266
v -0.60109416 -7.22269962 0.71314589
v -0.58068945 -7.36707244 1.25438615
v -0.85912879 -4.33587899 0.81233382
v -0.58106112 -6.91035542 1.4085293
v -0.58068945 -7.36707244 1.25438615
v -0.51528017 -6.46446067 1.67780763
v -0.71476197 -4.05843482 2.21672982
v -0.58106112 -6.91035542 1.4085293
v -0.93524196 -0.86364983 2.88780947
v -1.08988028 -1.05674073 2.11114266
v -0.71476197 -4.05843482 2.21672982
v -0.60296395 9.77743577 0.57742717
v -0.5995657 9.67162859 1.17045779
v -1.04863223 8.86945966 0.70453688
v -1.03066953 8.83471363 1.37853508
v -0.94376916 8.48709757 1.91270417
v -0.58937056 8.8986891 1.87818683
v -0.93524196 -0.86364983 2.88780947
v -0.41949223 -3.834353 2.47858848
v -0.54154373 -0.74965126 3.21140734
v -0.51528017 -6.46446067 1.67780763
v -0.30006553 -6.32206513 1.81774679
v -1.03066937 6.90828851 2.52803719
v -0.59956541 6.99934876 2.7986804
v -0.58937056 8.8986891 1.87818683
v -1.04863172 4.39822132 3.1897685
v -0.60296348 4.39836071 3.75628319
v -1.23214257 6.7106678 0.98976481
v -1.25835812 4.05137053 1.24314032
v -1.23214235 4.23334564 2.35526611
v -1.20689775 6.82621563 1.88403516
v -0.59956532 6.62808742 -3.07463956
v -0.58937055 8.75588799 -1.99754273
v -0.60296344 3.96038259 -3.90260108
v -1.0486318 3.96038239 -3.51783738
v -1.03066934 6.57653944 -2.79844976
v -0.94376914 8.31649588 -2.05529671
v 1.2E-07 -1.39071341 3.95353171
v 0.01473844 -1.39071341 3.95353171
v -1.20689773 6.61942345 -2.05433661
v -1.03066965 8.75588806 -1.44441941
v -1.23214232 3.92572937 -2.60222545
v -1.23214256 6.61061694 -1.06323981
v -1.04863223 8.84671328 -0.72355129
v -1.23214256 6.64478206 -0.01153674
v -1.04863223 8.84955633 -0.00237769
v -1.25835811 3.93710365 -0.02832006
v -0.21734118 -8.71493342 -2.47892773
v -0.24917143 -7.83957002 -1.96321597
v -0.20096934 -9.32248603 -3.04092408
v -0.32211887 -9.30154236 -2.8612323
v -0.37294945 -8.79686834 -2.35767591
v -0.45339474 -7.66430948 -1.85890156
v -0.33597347 -9.94131919 -1.25632014
v -0.18439289 -10.25876588 -1.35358415
v -0.18451671 -10.25797025 -0.0016377
v -0.33696413 -9.93496842 -0.00402646
v -0.18469816 -10.25533402 1.3404746
v -0.33841565 -9.91388148 1.22410042
v -0.88056377 -4.18322374 -0.88417648
v -0.87717679 -4.19195827 -0.00949554
v -1.14161175 -0.92878257 -0.00955761
v -0.60204163 -7.20380001 -0.79155451
v -0.60636577 -7.18369353 -0.00980037
v -0.60109416 -7.22269962 0.71314589
v -0.85912879 -4.33587899 0.81233382
v -0.58937055 8.75588799 -1.99754273
v -0.59956558 9.64694702 -1.19108991
v -0.60296395 9.77459168 -0.57980624
v -0.60296395 9.77494656 -0.00029838
v -0.44601807 -9.05387566 -1.022499
v -0.44885004 -9.03794337 -0.00855457
v -0.45130221 -8.99802332 0.95405527
v -3.64909498 2.91002033 -3.57678766
v -3.67245213 2.91256569 -3.5500998
v -2.65210682 3.46651528 -2.70993622
v -2.62874967 3.46396992 -2.73662431
v -1.24510303 1.59317807 -0.01294928
v -1.24155954 1.63755709 1.26891095
v -1.03780167 1.61501949 -3.5447724
v -1.21903232 1.58599757 -2.60632426
v -1.11655777 -0.92366996 -2.23949503
v -1.03445799 1.90495347 3.26965717
v -0.59528589 1.96203158 3.64749313
v -1.21435957 1.75868588 2.42821108
v -1.08988028 -1.05674073 2.11114266
v -0.59773412 1.63419856 -3.93388486
v -0.60109416 -7.22269962 0.71314589
v -0.45130221 -8.99802332 0.95405527
v -0.44912512 -8.9251157 1.84544136
v -0.33841565 -9.91388148 1.22410042
v -0.33421227 -9.89208696 2.20114089
v -0.45130221 -8.99802332 0.95405527
v -0.30435803 -9.92412934 2.78020309
v -0.34167835 -9.58081423 2.83573955
v -0.33421227 -9.89208696 2.20114089
v -0.32876085 -9.31910597 2.8830923
v -0.37463219 -8.98463247 2.48090326
v -0.39873981 -8.54557523 2.07718094
v -0.47254094 -8.43291777 1.69708999
v -0.37463219 -8.98463247 2.48090326
v -0.49151589 -8.1888144 1.45075959
v -0.4973452 -8.15540816 1.39109606
v -0.4973452 -8.15540816 1.39109606
v -0.37463219 -8.98463247 2.48090326
v -0.21817373 -8.97582235 2.76813898
v -0.22874587 -8.58383085 2.3378318
v -0.20382978 -9.348872 3.1062137
v -0.18430237 -10.23353759 2.36436801
v -0.33421227 -9.89208696 2.20114089
v -0.18431079 -10.10082033 2.9822154
v 1.5E-07 -1.67793155 4.81059928
v 0.01473847 -1.67793155 4.81059928
v 0.01473836 -0.47729043 5.10021855
v 4E-08 -0.47729043 5.10021855
v -0.45339474 -7.66430948 -1.85890156
v -0.57250853 -6.06882915 -1.87527302
v -0.3055005 -6.60807995 -1.89968379
v -0.37572623 -4.99339267 -2.22717158
v -0.42491546 -9.13444131 -2.05844173
v -0.5721133 -7.32759327 -1.52546549
v -0.33435958 -9.64690216 -2.91801259
v -0.37294945 -8.79686834 -2.35767591
v -0.30001032 -9.97449116 -2.85956614
v -0.3284572 -9.95668881 -2.2817969
v -0.33597347 -9.94131919 -1.25632014
v -0.44601807 -9.05387566 -1.022499
v -0.3284572 -9.95668881 -2.2817969
v -0.60204163 -7.20380001 -0.79155451
v -0.5721133 -7.32759327 -1.52546549
v -0.44601807 -9.05387566 -1.022499
v -0.19334151 -9.7985183 -3.24730461
v -0.18329786 -10.12300116 -3.03815331
v -0.30001032 -9.97449116 -2.85956614
v -0.33435958 -9.64690216 -2.91801259
v -0.18329786 -10.12300116 -3.03815331
v -0.18352669 -10.24359409 -2.40172163
v -0.3284572 -9.95668881 -2.2817969
v -0.34167835 -9.58081423 2.83573955
v -0.19533258 -9.75806881 3.19845265
v -0.30435803 -9.92412934 2.78020309
v -0.18431079 -10.10082033 2.9822154
v -0.51528017 -6.46446067 1.67780763
v -0.4304403 -7.47620562 1.47676167
v -0.49151589 -8.1888144 1.45075959
v -0.48809952 -7.91743257 1.42176905
v -0.41610777 -7.76576161 1.54725623
v -0.45339474 -7.66430948 -1.85890156
v -0.5721133 -7.32759327 -1.52546549
v -0.82740195 -4.4137947 -1.77968743
v -0.88056377 -4.18322374 -0.88417648
v -1.11655777 -0.92366996 -2.23949503
v -0.88056377 -4.18322374 -0.88417648
v -0.57250853 -6.06882915 -1.87527302
v -0.78745485 -3.22963253 -2.50565328
v -0.24795303 -7.41530681 1.56816192
v -0.23908298 -7.74660941 1.65603923
v -0.30006553 -6.32206513 1.81774679
v -0.4304403 -7.47620562 1.47676167
v -0.4778842 -8.11088965 1.59302132
v -0.4101145 -8.10256403 1.77347485
v -0.47254094 -8.43291777 1.69708999
v -0.48809952 -7.91743257 1.42176905
v -0.39873981 -8.54557523 2.07718094
v -0.4101145 -8.10256403 1.77347485
v -0.23530262 -8.13177311 1.94476214
v -0.22874587 -8.58383085 2.3378318
v -0.4101145 -8.10256403 1.77347485
v 1.11870161 8.04185178 0.6960568
v 1.1757926 8.00552348 0.74003239
v 1.20927243 7.74591521 0.63220387
v 1.14411491 7.73778702 0.55420971
v 1.1088188 8.04210463 1.30553488
v 1.16765609 8.00552359 1.26306324
v 1.15855445 8.11305603 1.00134294
v 1.10542562 8.1609648 1.00051645
v 1.23938198 7.48630841 0.74102172
v 1.1717517 7.41493302 0.67745904
v 1.18222234 7.28050746 1.00171117
v 1.24848373 7.37877406 1.00274184
v 1.23124571 7.48630852 1.26405251
v 1.16477283 7.41811557 1.32274199
v 1.19776588 7.74591536 1.37188096
v 1.13352483 7.73818584 1.44408924
v 1.30648533 7.75897257 1.23625942
v 1.28755202 7.92221775 1.16783351
v 1.29266837 7.92221768 0.83894547
v 1.31372086 7.75897248 0.77114158
v 1.33265417 7.59572825 0.83956749
v 1.33837741 7.5281104 1.00414026
v 1.32753794 7.59572832 1.16845559
v 1.28182878 7.98983465 1.00326067
v -1.14411626 7.73778587 0.55420959
v -1.20927379 7.74591452 0.63220387
v -1.17579388 8.00552328 0.74003245
v -1.11870301 8.04185159 0.69605686
v -1.10542716 8.16096366 1.00051645
v -1.15855587 8.11305583 1.00134294
v -1.16765737 8.00552338 1.26306324
v -1.10882033 8.04210443 1.30553488
v -1.23938329 7.48630819 0.74102178
v -1.17175311 7.41493282 0.67745916
v -1.16477425 7.41811441 1.32274211
v -1.23124689 7.4863083 1.26405262
v -1.24848514 7.37877384 1.00274196
v -1.18222361 7.28050725 1.00171117
v -1.19776723 7.74591467 1.3718812
v -1.13352642 7.73818468 1.44408936
v -1.28755329 7.92221752 1.16783363
v -1.30648693 7.75897234 1.23625942
v -1.31372234 7.75897225 0.77114158
v -1.29266963 7.92221745 0.83894547
v -1.33837873 7.52810969 1.00414026
v -1.3326555 7.59572802 0.83956749
v -1.32753903 7.59572809 1.16845559
v -1.28183042 7.98983442 1.00326067
v 4.02859017 1.613968 -3.72557116
v 3.67854441 2.91323057 -3.54313798
v 3.67854464 0.31470557 -3.29528842
v 3.6490947 0.311496 -3.32893834
v 3.67854464 0.31470557 -3.29528842
v 2.65819957 -0.23924354 -2.34945209
v 2.62874939 -0.2424531 -2.38310201
v 2.62874907 3.46397038 -2.73662431
v 2.65819924 3.46717998 -2.70297439
v 3.67854441 2.91323057 -3.54313798
v 3.64909447 2.91002097 -3.57678766
v 3.99914024 1.61075852 -3.75922108
v 4.02859017 1.613968 -3.72557116
v 2.69792065 1.61396812 -2.56097705
v 1.27308272 1.61236368 -1.3436804
v 1.27308276 -0.32142253 -1.15923382
v 1.27308243 3.54614957 -1.52812663
v 2.66847048 1.61075864 -2.59462697
v -4.02249791 1.6133033 -3.73253298
v -3.67245191 0.31404084 -3.30225024
v -3.67245213 2.91256569 -3.5500998
v -3.99914052 1.61075782 -3.75922108
v -4.02249791 1.6133033 -3.73253298
v -2.62874935 -0.24245356 -2.38310201
v -2.6521065 -0.23990804 -2.35641391
v -3.67245191 0.31404084 -3.30225024
v -3.64909475 0.31149534 -3.32893834
v -1.27003665 3.54581723 -1.53160754
v -2.69182791 1.61330365 -2.56793911
v -1.27003648 1.61203134 -1.34716131
v -1.27003632 -0.32175478 -1.16271473
v -2.66847076 1.61075817 -2.59462721
v 0.01473836 -0.47729043 5.10021855
v 0.01473847 -1.67793155 4.81059928
v 0.01473826 0.76352934 5.08446797
v 0.01473874 -4.82589858 3.67083212
v 0.0147386 -3.19156874 4.34713477
v 0.0147386 -3.19156874 4.34713477
v 0.01473844 -1.39071341 3.95353171
v -7E-08 0.76352934 5.08446797
v 0.01473826 0.76352934 5.08446797
v 0.01473811 2.43055662 4.63784159
v -2.1E-07 2.43055662 4.63784159
v 4.2E-07 -4.82589858 3.67083212
v 0.01473874 -4.82589858 3.67083212
v 0.0147386 -3.19156874 4.34713477
v 2.8E-07 -3.19156874 4.34713477
v 5.5E-07 -6.31468873 2.72509525
v 0.01473887 -6.31468872 2.72509525
v 0.00736983 -7.69850225 1.63109373
v 0.00736981 -7.44081423 1.60259803
v 0.01473871 -4.39655265 3.06080025
v 5.5E-07 -6.31793569 1.84833839
v 0.00736949 -3.80436825 2.51732196
v 0.00736923 -0.73336585 3.25763598
v 0.01473844 -1.39071341 3.95353171
v 0.00736899 1.96891014 3.70547986
v 0.01473826 0.70759328 4.40643801
v 0.00736878 4.36343105 3.95041814
v 3.8E-07 -4.39655265 3.06080025
v 1.2E-07 -1.39071341 3.95353171
v -6E-08 0.70759328 4.40643801
v 1.11537113 8.08433608 0.80827045
v 1.10542562 8.1609648 1.00051645
v 1.1088188 8.04210463 1.30553488
v 1.13352483 7.73818584 1.44408924
v 1.18222234 7.28050746 1.00171117
v 1.18030557 7.32045686 0.90919701
v 1.16477283 7.41811557 1.32274199
v 1.1431759 7.64886136 1.4091483
v 1.14411491 7.73778702 0.55420971
v 1.11870161 8.04185178 0.6960568
v 1.11537113 8.08433608 0.80827045
v 1.1717517 7.41493302 0.67745904
v -1.18222361 7.28050725 1.00171117
v -1.18030685 7.32045665 0.90919725
v -1.16477425 7.41811441 1.32274211
v -1.14317736 7.64886116 1.40914866
v -1.13352642 7.73818468 1.44408936
v -1.11537267 8.08433589 0.80827051
v -1.10542716 8.16096366 1.00051645
v -1.10882033 8.04210443 1.30553488
v -1.17175311 7.41493282 0.67745916
v -1.14411626 7.73778587 0.55420959
v -1.11870301 8.04185159 0.69605686
v 1.18030557 7.32045686 0.90919701
v 1.1431759 7.64886136 1.4091483
v 1.11537113 8.08433608 0.80827045
v -1.18030685 7.32045665 0.90919725
v -1.14317736 7.64886116 1.40914866
v -1.11537267 8.08433589 0.80827051
vn -0.04715 0.05387 -0.99743
vn -0.99106 0.11466 -0.06824
vn 0.89555 0.44167 0.05403
vn 0 0.68669 0.72695
vn -0.89555 0.44167 0.05403
vn 0.99106 0.11466 -0.06824
vn -0.08036 0.02471 -0.99646
vn 0.01366 -0.08309 0.99645
vn 0.04715 0.05388 -0.99743
vn 0.08036 0.02472 -0.99646
vn -0.01366 -0.08309 0.99645
vn 0 0.90187 -0.432
vn -0 -0.87409 -0.48576
vn 0 0.78446 -0.62017
vn 0 0.73676 0.67616
vn 0 0.94219 0.33509
vn -0.0638 -0.96081 -0.26976
vn -0.54004 -0.80944 -0.23055
vn -0.41347 -0.87956 -0.23539
vn -0.04581 -0.9658 -0.25521
vn -0.99596 0.03352 -0.08336
vn -0.96681 0.22927 -0.11276
vn -0.93978 0.31473 -0.13325
vn -0.9379 0.32845 -0.11161
vn -0.99581 0.02605 -0.08767
vn -0.19326 0.18194 0.96413
vn -0.09278 0.73759 0.66885
vn -0.67058 0.52518 0.52394
vn -0.88648 0.06576 0.45807
vn -0.57185 0.7934 -0.20857
vn -0.07562 0.96941 -0.23349
vn -0.08135 0.9627 -0.25804
vn -0.48972 0.83889 -0.23758
vn -0.47502 0.80001 0.36652
vn -0.06242 0.89656 0.4385
vn -0.17468 0.91605 0.36102
vn -0.68527 0.69345 0.22257
vn -0.9577 0.24712 0.14746
vn -0.97219 0.22676 0.05858
vn -0.99963 0.0237 0.01306
vn -0.05762 -0.88972 0.45285
vn -0.46346 -0.79722 0.38683
vn -0.5946 -0.77096 0.22818
vn -0.07571 -0.95158 0.29793
vn -0.95952 -0.23923 0.14864
vn -0.99566 -0.02936 0.08829
vn -0.99944 -0.02891 0.01657
vn -0.97557 -0.21174 0.05847
vn -0.99659 -0.00172 0.0825
vn -0.99995 -0.00077 0.00973
vn -0.99993 0.00389 0.01131
vn -0.04778 -0.85529 0.51594
vn -0.41346 -0.82178 0.39208
vn -0.69318 -0.54093 0.47635
vn -0.10696 -0.72986 0.67518
vn -0.90333 0.00079 -0.42894
vn -0.90844 0.00328 -0.418
vn -0.24903 0.00093 -0.96849
vn -0.24071 0.00027 -0.9706
vn -0.99516 0.03883 -0.09026
vn -0.99671 0.00846 -0.0806
vn -0.99596 0.00442 -0.08967
vn -0.99585 6E-05 -0.09099
vn -0.09257 -0.74101 0.66508
vn -0.1979 -0.2068 0.95816
vn -0.88971 -0.08774 0.44802
vn -0.66813 -0.53305 0.5191
vn -0.21443 -0.0003 0.97674
vn -0.21227 -0.00214 0.97721
vn -0.89952 -0.00761 0.43681
vn -0.90115 -0.00107 0.4335
vn -0.99645 -0.00228 -0.0842
vn -0.99644 0.00171 -0.08425
vn -0.99243 0.00165 -0.1228
vn -0.99236 -0.00046 -0.12336
vn 0.66602 -0.74258 -0.07066
vn 0.66601 -0.74256 -0.07099
vn -0.75368 -0.65636 -0.03414
vn -0.99988 0.0154 -0.00238
vn -0.99998 0.00178 -0.0063
vn -0.99905 0.00796 -0.04288
vn -0.99805 0.05893 -0.0207
vn -0.98116 -0.19315 -0.00373
vn -0.99913 -0.04134 -0.00481
vn -0.99619 -0.08069 -0.03298
vn -0.97825 -0.19527 -0.07005
vn -0.72949 0.68396 -0.00724
vn -0.20944 0.97519 -0.07174
vn -0.08796 0.98297 -0.16136
vn -0.62243 0.77138 -0.1325
vn -0.99968 0.02439 -0.00658
vn -0.9773 0.21187 0.00023
vn -0.97432 0.21527 -0.06598
vn -0.99845 0.02995 -0.04685
vn -0.09171 -0.9957 0.01343
vn -0.65802 -0.75296 0.00712
vn -0.62645 -0.758 -0.18167
vn -0.08307 -0.96936 -0.23118
vn -0.99663 0.01166 -0.08121
vn 0.98225 0.13739 0.12767
vn -0.99805 0.05603 -0.02743
vn -0.98779 0.15086 0.03902
vn -0.9924 0.12182 0.01765
vn -0.99353 0.04039 -0.10618
vn -0.99308 0.00932 -0.11705
vn -0.75824 0.47574 0.44581
vn -0.23216 0.65214 0.72168
vn -0.25027 0.73033 0.6356
vn -0.79262 0.45374 0.40728
vn -0.91535 0.01087 -0.40252
vn -0.90164 0.05853 -0.42851
vn -0.243 0.21488 -0.94593
vn -0.25828 0.02042 -0.96585
vn -0.26392 -0.96454 -0.00029
vn -0.02542 -0.9981 0.05612
vn -0.04604 -0.97922 -0.19751
vn -0.40858 -0.88693 -0.21545
vn -0.96535 -0.26041 0.01665
vn -0.99672 -0.01967 -0.07854
vn -0.99301 -0.00831 -0.11772
vn -0.99335 -0.04282 -0.10686
vn -0.98969 -0.13604 0.04475
vn -0.16563 -0.90386 0.39446
vn -0.85342 -0.49497 0.16337
vn -0.91636 -0.34459 -0.2038
vn -0.25176 -0.80732 -0.53372
vn -0.87358 -0.0615 -0.48278
vn -0.89827 -0.00359 -0.43943
vn -0.23112 -0.01591 -0.97279
vn -0.21303 -0.18879 -0.95863
vn -0.90215 0.43002 0.03471
vn -0.25479 0.94505 0.20485
vn -0.26595 0.8107 -0.52158
vn -0.92855 0.31805 -0.19142
vn -0.82368 0.54591 -0.15342
vn -0.91242 0.40341 0.06895
vn -0.98557 0.16844 0.01658
vn -0.93036 -0.35318 -0.09844
vn -0.93055 -0.33619 -0.14509
vn -0.96848 -0.22219 -0.11257
vn -0.99309 -0.06389 -0.09847
vn -0.99534 -0.03089 -0.09134
vn -0.02896 0.98071 0.19333
vn -0.50991 0.83791 0.19468
vn -0.40584 0.88793 -0.21649
vn -0.12505 0.96772 -0.21882
vn -0.92626 0.31462 0.20752
vn -0.95705 0.26401 0.11981
vn -0.99611 0.08659 0.01618
vn -0.19353 0.72901 0.65657
vn -0.66109 0.59842 0.45261
vn -0.53597 0.69074 0.48541
vn -0.10319 0.77912 0.61833
vn 0.0638 -0.96081 -0.26976
vn 0.04581 -0.9658 -0.25521
vn 0.41347 -0.87956 -0.23539
vn 0.54004 -0.80944 -0.23055
vn 0.99596 0.03352 -0.08336
vn 0.99581 0.02605 -0.08767
vn 0.9379 0.32845 -0.11162
vn 0.93978 0.31474 -0.13325
vn 0.96681 0.22927 -0.11276
vn 0.19326 0.18194 0.96413
vn 0.88648 0.06576 0.45807
vn 0.67058 0.52518 0.52394
vn 0.09278 0.73759 0.66885
vn 0.57185 0.7934 -0.20857
vn 0.48972 0.83889 -0.23758
vn 0.07973 0.9629 -0.25782
vn 0.07335 0.96959 -0.23349
vn 0.47503 0.80001 0.36652
vn 0.68527 0.69345 0.22257
vn 0.17265 0.91655 0.36072
vn 0.06242 0.89656 0.4385
vn 0.99963 0.0237 0.01306
vn 0.97219 0.22676 0.05858
vn 0.9577 0.24712 0.14746
vn 0.05762 -0.88972 0.45285
vn 0.07571 -0.95158 0.29793
vn 0.5946 -0.77096 0.22818
vn 0.46346 -0.79723 0.38683
vn 0.99996 -0.00839 0.00157
vn 0 0.95861 -0.28471
vn 0.99996 -0.00838 0.00097
vn 0.95952 -0.23923 0.14864
vn 0.97557 -0.21174 0.05847
vn 0.99949 -0.02762 0.01583
vn 0.99566 -0.02936 0.08829
vn 0.99659 -0.00172 0.0825
vn 0.99994 0.00276 0.01087
vn 0.99995 -0.00077 0.00973
vn 0.04778 -0.85529 0.51594
vn 0.10696 -0.72986 0.67518
vn 0.69318 -0.54093 0.47635
vn 0.41346 -0.82178 0.39208
vn 0.90333 0.00079 -0.42894
vn 0.24071 0.00027 -0.9706
vn 0.24904 0.00093 -0.96849
vn 0.90844 0.00328 -0.418
vn 0.99525 0.0374 -0.08988
vn 0.99585 6E-05 -0.09099
vn 0.99596 0.00442 -0.08967
vn 0.99671 0.00846 -0.0806
vn 0.09257 -0.74101 0.66508
vn 0.66813 -0.53305 0.5191
vn 0.88971 -0.08774 0.44802
vn 0.1979 -0.20679 0.95816
vn 0.21443 -0.0003 0.97674
vn 0.90115 -0.00107 0.4335
vn 0.89952 -0.00761 0.43681
vn 0.21227 -0.00214 0.97721
vn 0.99645 -0.00228 -0.0842
vn 0.99236 -0.00046 -0.12336
vn 0.99243 0.00165 -0.1228
vn 0.99644 0.00171 -0.08425
vn -0.66414 -0.74424 -0.07085
vn 0.75368 -0.65636 -0.03414
vn 0.24815 -0.30488 0.91949
vn -0.66413 -0.74423 -0.07112
vn 0.99991 0.01323 -0.00248
vn 0.9982 0.05631 -0.02081
vn 0.99905 0.00796 -0.04288
vn 0.99998 0.00178 -0.0063
vn 0.98116 -0.19315 -0.00373
vn 0.97825 -0.19527 -0.07005
vn 0.99638 -0.07843 -0.03271
vn 0.99923 -0.03884 -0.0047
vn 0.72949 0.68396 -0.00724
vn 0.62243 0.77138 -0.1325
vn 0.08573 0.98316 -0.16137
vn 0.20457 0.97621 -0.07181
vn 0.99968 0.02439 -0.00658
vn 0.99845 0.02995 -0.04685
vn 0.97432 0.21527 -0.06598
vn 0.9773 0.21187 0.00023
vn 0.09171 -0.9957 0.01343
vn 0.08307 -0.96936 -0.23118
vn 0.62645 -0.75799 -0.18167
vn 0.65802 -0.75296 0.00712
vn 0.99663 0.01166 -0.08121
vn 0.99308 0.00932 -0.11705
vn 0.99353 0.04039 -0.10618
vn 0.9924 0.12182 0.01765
vn 0.98779 0.15086 0.03902
vn 0.99805 0.05603 -0.02743
vn -0.98225 0.13739 0.12767
vn 0.75823 0.47575 0.44581
vn 0.79262 0.45374 0.40728
vn 0.25027 0.73033 0.6356
vn 0.23217 0.65214 0.72168
vn 0.91535 0.01087 -0.40252
vn 0.25828 0.02042 -0.96585
vn 0.243 0.21488 -0.94593
vn 0.90164 0.05853 -0.42851
vn 0.99997 -0.00765 0.00108
vn 0 0.97212 -0.23449
vn 0 0.9911 -0.13311
vn 0.99995 -0.00936 0.00251
vn 1 0 0
vn 0.26392 -0.96454 -0.00029
vn 0.40858 -0.88693 -0.21545
vn 0.04604 -0.97922 -0.19751
vn 0.02542 -0.9981 0.05612
vn 0.96535 -0.26041 0.01665
vn 0.98969 -0.13604 0.04475
vn 0.99335 -0.04282 -0.10686
vn 0.99301 -0.00831 -0.11772
vn 0.99672 -0.01967 -0.07854
vn 0.16564 -0.90386 0.39446
vn 0.25176 -0.80732 -0.53372
vn 0.91636 -0.34459 -0.2038
vn 0.85342 -0.49497 0.16337
vn 0.87358 -0.0615 -0.48278
vn 0.21302 -0.18879 -0.95863
vn 0.23112 -0.01591 -0.9728
vn 0.89827 -0.00359 -0.43943
vn 0.90215 0.43002 0.03471
vn 0.92855 0.31805 -0.19142
vn 0.26595 0.8107 -0.52158
vn 0.25479 0.94505 0.20485
vn 0.82368 0.54591 -0.15342
vn 0.98557 0.16844 0.01658
vn 0.91242 0.40341 0.06895
vn 0.93036 -0.35318 -0.09844
vn 0.99534 -0.03089 -0.09134
vn 0.99321 -0.0627 -0.09798
vn 0.96848 -0.22219 -0.11257
vn 0.93055 -0.33619 -0.14509
vn 0.02726 0.98075 0.19337
vn 0.12179 0.96795 -0.21962
vn 0.40584 0.88793 -0.21649
vn 0.50991 0.83791 0.19468
vn 0.92626 0.31462 0.20752
vn 0.99611 0.08659 0.01618
vn 0.95705 0.26401 0.11981
vn 0.19353 0.72901 0.65657
vn 0.10006 0.77849 0.61963
vn 0.53597 0.69074 0.48541
vn 0.66109 0.59842 0.45261
vn -0.90471 -0.2545 0.34166
vn -0.71471 -0.4414 0.54255
vn -0.77262 -0.62796 0.09342
vn -0.93181 -0.35228 0.08738
vn -0.89647 0.27553 0.34703
vn -0.70063 0.46343 0.54254
vn -0.68488 0.01065 0.72858
vn -0.88966 0.01901 0.45623
vn -0.82471 -0.43969 -0.3557
vn -0.95671 -0.24467 -0.1576
vn -0.96653 0.01975 -0.25578
vn -0.84046 0.01306 -0.54171
vn -0.81063 0.46515 -0.3557
vn -0.95077 0.26817 -0.15528
vn -0.75272 0.65167 0.09342
vn -0.9219 0.37606 0.09321
vn -0.83378 0.54238 0.10312
vn -0.79069 0.38665 0.47467
vn -0.80233 -0.36187 0.47467
vn -0.85024 -0.5162 0.10312
vn -0.89333 -0.36046 -0.26839
vn -0.90636 0.01407 -0.42227
vn -0.8817 0.38805 -0.26838
vn -0.77766 0.01209 0.62857
vn 0.93181 -0.35228 0.08738
vn 0.77262 -0.62796 0.09342
vn 0.71471 -0.4414 0.54255
vn 0.90471 -0.2545 0.34166
vn 0.88966 0.01901 0.45623
vn 0.68488 0.01065 0.72858
vn 0.70063 0.46343 0.54254
vn 0.89647 0.27553 0.34703
vn 0.82471 -0.43969 -0.3557
vn 0.95671 -0.24467 -0.1576
vn 0.95077 0.26817 -0.15528
vn 0.81063 0.46515 -0.3557
vn 0.84046 0.01306 -0.54171
vn 0.96653 0.01975 -0.25578
vn 0.75272 0.65167 0.09342
vn 0.9219 0.37606 0.09321
vn 0.79069 0.38665 0.47467
vn 0.83378 0.54238 0.10312
vn 0.85024 -0.5162 0.10312
vn 0.80233 -0.36187 0.47467
vn 0.90636 0.0141 -0.42227
vn 0.89333 -0.36046 -0.26839
vn 0.8817 0.38805 -0.26838
vn 0.77766 0.01209 0.62857
vn -0.6569 0.75057 0.07159
vn -0.6569 0.75057 0.07159
vn -0.32286 -0.19421 -0.92631
vn -0.75368 -0.65099 -0.09046
vn -0.24815 -0.30488 0.91949
vn -0.7121 -0.5864 -0.38606
vn -0.70855 -0.64698 0.28174
vn -0.64767 0.75846 0.07251
vn -0.64769 0.75848 0.07218
vn 0.6569 -0.75057 -0.07159
vn 0.6569 -0.75057 -0.07159
vn 0.6569 0.75057 0.07159
vn 0.6569 0.75057 0.07159
vn 0.70854 -0.64698 0.28174
vn 0.75368 -0.65099 -0.09046
vn 0.32286 -0.19421 -0.92631
vn 0.7121 -0.58641 -0.38606
vn 0.6496 0.75685 0.07205
vn 0.64959 0.75684 0.07232
vn -0.6569 -0.75057 -0.07159
vn -0.6569 -0.75057 -0.07159
vn -1 -0 -0
vn -1 -0 -0
vn -1 0 0
vn -1 0 -0
vn 0 0.98503 -0.1724
vn 0 0.96593 0.25879
vn 0 0.92401 -0.38237
vn 0 0.95618 -0.29278
vn 0 0.97749 -0.21099
vn 0 0.84409 -0.5362
vn 0 0.99992 0.01269
vn -0.99997 -0.00765 0.00108
vn -0.99978 -0.02021 0.00508
vn -0.99995 -0.00936 0.00251
vn -0.99996 -0.00839 0.00157
vn -0.99996 -0.00838 0.00097
vn 1 -0 0
vn -0.99556 0.02413 0.09096
vn -0.9965 -0.00437 0.08347
vn 0.99556 0.02413 0.09096
vn 0.9965 -0.00437 0.08347
vn -0.96149 -0.13047 -0.24189
vn -0.93263 0.35823 -0.04318
vn -0.89106 -0.13203 0.43425
vn 0.96149 -0.13047 -0.24189
vn 0.93263 0.35823 -0.04318
vn 0.89106 -0.13203 0.43425
vt 0.45833 0.39532
vt 0.45833 0.39532
vt 0.61006 0.28739
vt 0.60529 0.2729
vt 0.60481 0.27275
vt 0.61625 0.278
vt 0.75 0.37092
vt 0.75 0.36235
vt 0.61006 0.28739
vt 0.61625 0.278
vt 0.45833 0.37092
vt 0.45833 0.41972
vt 0.45833 0.39532
vt 0.45833 0.37092
vt 0.45833 0.41972
vt 0.75 0.31296
vt 0.75 0.27674
vt 0.75 0.39441
vt 0.75 0.39532
vt 0.75 0.27275
vt 0.75 0.27275
vt 0.75 0.32583
vt 0.75 0.41972
vt 0.75 0.41972
vt 0.25 0.37092
vt 0.31152 0.36824
vt 0.31086 0.33832
vt 0.25 0.33871
vt 0.36713 0.36598
vt 0.36263 0.33376
vt 0.34931 0.31252
vt 0.30942 0.31064
vt 0.25 0.3065
vt 0.54214 0.36178
vt 0.58527 0.36081
vt 0.58871 0.31404
vt 0.54255 0.32035
vt 0.63242 0.36267
vt 0.63434 0.32362
vt 0.63946 0.29345
vt 0.61006 0.28739
vt 0.63434 0.32362
vt 0.58025 0.28215
vt 0.61006 0.28739
vt 0.54175 0.28464
vt 0.54255 0.32035
vt 0.58025 0.28215
vt 0.54167 0.625
vt 0.58333 0.625
vt 0.58333 0.56328
vt 0.54167 0.56343
vt 0.625 0.625
vt 0.625 0.5625
vt 0.625 0.5
vt 0.58348 0.50683
vt 0.54167 0.50745
vt 0.63242 0.36267
vt 0.68843 0.36443
vt 0.68867 0.32625
vt 0.75 0.28073
vt 0.68931 0.29402
vt 0.63946 0.29345
vt 0.6875 0.5
vt 0.68822 0.45997
vt 0.63137 0.46056
vt 0.75 0.5
vt 0.75 0.45986
vt 0.68837 0.42145
vt 0.63194 0.42436
vt 0.58406 0.46129
vt 0.5842 0.42497
vt 0.54167 0.46145
vt 0.54167 0.42497
vt 0.25 0.5
vt 0.3125 0.5
vt 0.31178 0.46041
vt 0.25 0.45986
vt 0.375 0.5
vt 0.36863 0.46067
vt 0.36806 0.42497
vt 0.31163 0.42453
vt 0.25 0.41972
vt 0.41652 0.50683
vt 0.41594 0.46118
vt 0.45833 0.50745
vt 0.45833 0.46101
vt 0.4158 0.42453
vt 0.5 0.50745
vt 0.5 0.46134
vt 0.5 0.42453
vt 0.25 0.26706
vt 0.31151 0.27234
vt 0.31174 0.26374
vt 0.25 0.26325
vt 0.36705 0.27573
vt 0.36772 0.26348
vt 0.375 0.25944
vt 0.31235 0.25916
vt 0.25 0.25944
vt 0.46249 0.23279
vt 0.50006 0.23297
vt 0.49998 0.18537
vt 0.46388 0.18535
vt 0.53798 0.23319
vt 0.53596 0.1854
vt 0.54167 0.125
vt 0.5 0.125
vt 0.45833 0.125
vt 0.5 0.36324
vt 0.49986 0.32216
vt 0.4563 0.32194
vt 0.54214 0.36178
vt 0.54175 0.28464
vt 0.49988 0.28512
vt 0.45733 0.28437
vt 0.375 0.625
vt 0.41667 0.625
vt 0.41667 0.56328
vt 0.375 0.5625
vt 0.45833 0.625
vt 0.45833 0.56343
vt 0.5 0.625
vt 0.5 0.56343
vt 0.50014 0.2608
vt 0.45883 0.2603
vt 0.54226 0.26123
vt 0.50001 0.395
vt 0.54173 0.39484
vt 0.41555 0.39498
vt 0.36794 0.39536
vt 0.41377 0.36306
vt 0.68838 0.39469
vt 0.632 0.39484
vt 0.58434 0.39471
vt 0.58528 0.36081
vt 0.31162 0.39556
vt 0.25 0.39532
vt 0.54175 0.28464
vt 0.59092 0.26327
vt 0.54226 0.26123
vt 0.60529 0.2727
vt 0.60577 0.27264
vt 0.61538 0.26976
vt 0.60529 0.2727
vt 0.625 0.26687
vt 0.63374 0.26325
vt 0.625 0.25939
vt 0.60514 0.2547
vt 0.63374 0.26325
vt 0.58527 0.25
vt 0.56943 0.23469
vt 0.53798 0.23319
vt 0.54226 0.26123
vt 0.56943 0.23469
vt 0.68769 0.26751
vt 0.68826 0.26348
vt 0.75 0.2664
vt 0.75 0.26373
vt 0.75 0.26105
vt 0.68769 0.2597
vt 0.56943 0.23469
vt 0.56356 0.18579
vt 0.58527 0.1875
vt 0.58527 0.125
vt 0.56347 0.125
vt 0.36705 0.27573
vt 0.31151 0.27234
vt 0.31086 0.28875
vt 0.36262 0.2962
vt 0.25 0.28678
vt 0.30942 0.31064
vt 0.36705 0.27573
vt 0.41354 0.28156
vt 0.41488 0.25949
vt 0.45733 0.28437
vt 0.45883 0.2603
vt 0.46249 0.23279
vt 0.43132 0.23383
vt 0.45883 0.2603
vt 0.41312 0.25
vt 0.39406 0.25472
vt 0.43132 0.23383
vt 0.36772 0.26348
vt 0.3125 0.25469
vt 0.25 0.25472
vt 0.375 0.25472
vt 0.375 0.25
vt 0.3125 0.25
vt 0.25 0.25
vt 0.4358 0.18568
vt 0.41312 0.1875
vt 0.43573 0.125
vt 0.41312 0.125
vt 0.6875 0.25506
vt 0.625 0.2547
vt 0.75 0.25553
vt 0.75 0.25
vt 0.6875 0.25
vt 0.625 0.25
vt 0.64072 0.28105
vt 0.625 0.28073
vt 0.61666 0.27704
vt 0.60577 0.27305
vt 0.36705 0.27573
vt 0.36262 0.2962
vt 0.40593 0.31826
vt 0.41354 0.28156
vt 0.36263 0.33376
vt 0.36713 0.36598
vt 0.4563 0.32194
vt 0.45733 0.28437
vt 0.75 0.27785
vt 0.68787 0.2777
vt 0.68928 0.28123
vt 0.75 0.27929
vt 0.64072 0.28105
vt 0.63946 0.29345
vt 0.68931 0.29402
vt 0.625 0.27984
vt 0.61871 0.2776
vt 0.625 0.27895
vt 0.61538 0.276
vt 0.625 0.27984
vt 0.6875 0.27289
vt 0.75 0.27212
vt 0.625 0.2738
vt 0.31086 0.33832
vt 0.36713 0.36598
vt 0.58871 0.31404
vt 0.54175 0.28464
vt 0.58025 0.28215
vt 0.54255 0.32035
vt 0.58025 0.28215
vt 0.61006 0.28739
vt 0.58527 0.36081
vt 0.58333 0.56328
vt 0.63242 0.36267
vt 0.68867 0.32625
vt 0.68843 0.36443
vt 0.63137 0.46056
vt 0.68837 0.42145
vt 0.58406 0.46129
vt 0.31178 0.46041
vt 0.36806 0.42497
vt 0.36863 0.46067
vt 0.75 0.36235
vt 0.4158 0.42453
vt 0.45833 0.50745
vt 0.5 0.46134
vt 0.5 0.42453
vt 0.31235 0.25916
vt 0.46249 0.23279
vt 0.46388 0.18535
vt 0.50006 0.23297
vt 0.53596 0.1854
vt 0.53798 0.23319
vt 0.49986 0.32216
vt 0.45733 0.28437
vt 0.49988 0.28512
vt 0.54255 0.32035
vt 0.41667 0.56328
vt 0.54226 0.26123
vt 0 1
vt 0.50001 0.395
vt 0.54173 0.39484
vt 0.36794 0.39536
vt 0.41555 0.39498
vt 0.41377 0.36306
vt 0.632 0.39484
vt 0.68838 0.39469
vt 0.58434 0.39471
vt 0.58528 0.36081
vt 0.31162 0.39556
vt 0.54175 0.28464
vt 0.54226 0.26123
vt 0.59092 0.26327
vt 0.53798 0.23319
vt 0.56943 0.23469
vt 0.54226 0.26123
vt 0.63374 0.26325
vt 0.63374 0.26325
vt 0.68826 0.26348
vt 0.68769 0.26751
vt 0.68769 0.2597
vt 0.56356 0.18579
vt 0.56943 0.23469
vt 0.36262 0.2962
vt 0.31086 0.28875
vt 0.30942 0.31064
vt 0.41488 0.25949
vt 0.41354 0.28156
vt 0.43132 0.23383
vt 0.46249 0.23279
vt 0.43132 0.23383
vt 0.45883 0.2603
vt 0.3125 0.25469
vt 0.4358 0.18568
vt 0.6875 0.25506
vt 0.64072 0.28105
vt 0.61666 0.27704
vt 0.40593 0.31826
vt 0.41377 0.36306
vt 0.4563 0.32194
vt 0.36263 0.33376
vt 0.68931 0.29402
vt 0.64072 0.28105
vt 0.6875 0.27289
vt 0.68769 0.26751
vt 0.75 0.39532
vt 0.75 0.41972
vt 0.75 0.27275
vt 0.75 0.32184
vt 0.75 0.32184
vt 0.75 0.36235
vt 0.54167 0.49072
vt 0.55365 0.49215
vt 0.56986 0.48928
vt 0.57358 0.48236
vt 0.54653 0.47346
vt 0.54167 0.47444
vt 0.56409 0.47568
vt 0.57082 0.48045
vt 0.52775 0.48363
vt 0.53619 0.48993
vt 0.54167 0.49072
vt 0.53196 0.47668
vt 0.56409 0.47568
vt 0.57082 0.48045
vt 0.57358 0.48236
vt 0.56986 0.48928
vt 0.53196 0.47668
vt 0.53619 0.48993
usemtl mat0
f 1/1/1 2/2/1 3/2/1
f 4/3/2 5/4/2 6/5/2
f 4/3/3 7/6/3 5/4/3
f 8/7/4 9/8/4 10/8/4
f 11/9/5 12/4/5 13/10/5
f 11/9/6 14/5/6 12/4/6
f 15/11/7 16/11/7 17/11/7
f 18/12/8 19/12/8 20/12/8
f 21/2/9 22/13/9 23/2/9
f 24/11/10 25/14/10 26/11/10
f 27/15/11 28/12/11 29/12/11
f 30/16/12 31/17/12 32/16/12
f 33/18/13 34/19/13 35/18/13
f 36/20/14 37/21/14 38/20/14
f 39/22/15 30/16/15 32/16/15
f 40/23/16 41/24/16 42/24/16
f 43/25/17 44/26/17 45/27/17
f 43/25/17 45/27/17 46/28/17
f 44/26/18 47/29/18 48/30/18
f 44/26/18 48/30/18 45/27/18
f 45/27/19 48/30/19 49/31/19
f 45/27/19 49/31/19 50/32/19
f 46/28/20 45/27/20 50/32/20
f 46/28/20 50/32/20 51/33/20
f 52/34/21 53/35/21 54/36/21
f 52/34/21 54/36/21 55/37/21
f 56/38/22 57/39/22 54/36/22
f 56/38/22 54/36/22 53/35/22
f 58/40/23 59/41/23 54/36/23
f 58/40/23 54/36/23 60/42/23
f 6/5/24 61/43/24 54/36/24
f 6/5/24 54/36/24 62/44/24
f 63/45/25 64/46/25 54/36/25
f 63/45/25 54/36/25 65/47/25
f 66/48/26 67/49/26 68/50/26
f 66/48/26 68/50/26 69/51/26
f 67/49/27 70/52/27 71/53/27
f 67/49/27 71/53/27 68/50/27
f 68/50/28 71/53/28 72/54/28
f 68/50/28 72/54/28 73/55/28
f 69/51/29 68/50/29 73/55/29
f 69/51/29 73/55/29 74/56/29
f 75/57/30 76/58/30 77/59/30
f 75/57/30 77/59/30 57/39/30
f 76/58/31 8/7/31 39/22/31
f 76/58/31 39/22/31 77/59/31
f 77/59/32 39/22/32 78/60/32
f 77/59/32 78/60/32 79/61/32
f 57/39/33 77/59/33 79/61/33
f 57/39/33 79/61/33 80/62/33
f 72/54/34 81/63/34 82/64/34
f 72/54/34 82/64/34 83/65/34
f 81/63/35 84/66/35 85/67/35
f 81/63/35 85/67/35 82/64/35
f 82/64/36 85/67/36 40/23/36
f 82/64/36 40/23/36 86/68/36
f 83/65/37 82/64/37 86/68/37
f 83/65/37 86/68/37 87/69/37
f 73/55/38 72/54/38 83/65/38
f 73/55/38 83/65/38 88/70/38
f 88/70/39 83/65/39 87/69/39
f 88/70/39 87/69/39 89/71/39
f 90/72/40 88/70/40 89/71/40
f 90/72/40 89/71/40 91/73/40
f 92/74/41 93/75/41 94/76/41
f 92/74/41 94/76/41 95/77/41
f 93/75/42 96/78/42 97/79/42
f 93/75/42 97/79/42 94/76/42
f 94/76/43 97/79/43 98/80/43
f 94/76/43 98/80/43 99/81/43
f 95/77/44 94/76/44 99/81/44
f 95/77/44 99/81/44 100/82/44
f 96/78/45 101/83/45 102/84/45
f 96/78/45 102/84/45 97/79/45
f 101/83/46 103/85/46 104/86/46
f 101/83/46 104/86/46 102/84/46
f 102/84/47 104/86/47 105/15/47
f 102/84/47 105/15/47 106/87/47
f 97/79/48 102/84/48 106/87/48
f 97/79/48 106/87/48 98/80/48
f 103/85/49 107/88/49 108/89/49
f 103/85/49 108/89/49 104/86/49
f 108/89/50 90/72/50 91/73/50
f 108/89/50 91/73/50 109/90/50
f 104/86/51 108/89/51 109/90/51
f 104/86/51 109/90/51 105/15/51
f 110/91/52 111/92/52 112/93/52
f 110/91/52 112/93/52 113/94/52
f 111/92/53 114/95/53 115/96/53
f 111/92/53 115/96/53 112/93/53
f 112/93/54 115/96/54 116/97/54
f 112/93/54 116/97/54 117/98/54
f 113/94/55 112/93/55 117/98/55
f 113/94/55 117/98/55 118/99/55
f 119/100/56 120/101/56 121/102/56
f 119/100/56 121/102/56 122/103/56
f 120/101/57 123/104/57 124/105/57
f 120/101/57 124/105/57 121/102/57
f 121/102/58 124/105/58 125/106/58
f 121/102/58 125/106/58 126/107/58
f 122/103/59 121/102/59 126/107/59
f 122/103/59 126/107/59 127/108/59
f 128/14/60 129/109/60 130/110/60
f 128/14/60 130/110/60 131/111/60
f 129/109/61 132/112/61 55/37/61
f 129/109/61 55/37/61 130/110/61
f 130/110/62 55/37/62 133/113/62
f 130/110/62 133/113/62 134/114/62
f 131/111/63 130/110/63 134/114/63
f 131/111/63 134/114/63 135/115/63
f 136/116/64 137/117/64 138/118/64
f 136/116/64 138/118/64 139/119/64
f 137/117/65 140/120/65 141/121/65
f 137/117/65 141/121/65 138/118/65
f 138/118/66 141/121/66 103/85/66
f 138/118/66 103/85/66 101/83/66
f 139/119/67 138/118/67 101/83/67
f 139/119/67 101/83/67 96/78/67
f 140/120/68 142/122/68 143/123/68
f 140/120/68 143/123/68 141/121/68
f 142/122/69 66/48/69 69/51/69
f 142/122/69 69/51/69 143/123/69
f 143/123/70 69/51/70 74/56/70
f 143/123/70 74/56/70 107/88/70
f 141/121/71 143/123/71 107/88/71
f 141/121/71 107/88/71 103/85/71
f 135/115/72 134/114/72 144/124/72
f 135/115/72 144/124/72 145/125/72
f 134/114/73 133/113/73 146/126/73
f 134/114/73 146/126/73 144/124/73
f 144/124/74 146/126/74 123/104/74
f 144/124/74 123/104/74 120/101/74
f 145/125/75 144/124/75 120/101/75
f 145/125/75 120/101/75 119/100/75
f 15/11/76 1/1/76 2/2/76
f 15/11/76 2/2/76 16/11/76
f 1/1/77 19/12/77 18/12/77
f 1/1/77 18/12/77 2/2/77
f 2/2/78 18/12/78 20/12/78
f 2/2/78 20/12/78 3/2/78
f 105/15/79 109/90/79 147/127/79
f 105/15/79 147/127/79 1/1/79
f 109/90/80 91/73/80 148/128/80
f 109/90/80 148/128/80 147/127/80
f 147/127/81 148/128/81 132/112/81
f 147/127/81 132/112/81 129/109/81
f 1/1/82 147/127/82 129/109/82
f 1/1/82 129/109/82 128/14/82
f 98/80/83 106/87/83 149/129/83
f 98/80/83 149/129/83 150/130/83
f 106/87/84 105/15/84 1/1/84
f 106/87/84 1/1/84 149/129/84
f 149/129/85 1/1/85 128/14/85
f 149/129/85 128/14/85 151/131/85
f 150/130/86 149/129/86 151/131/86
f 150/130/86 151/131/86 47/29/86
f 87/69/87 86/68/87 152/132/87
f 87/69/87 152/132/87 153/133/87
f 86/68/88 40/23/88 34/19/88
f 86/68/88 34/19/88 152/132/88
f 152/132/89 34/19/89 8/7/89
f 152/132/89 8/7/89 76/58/89
f 153/133/90 152/132/90 76/58/90
f 153/133/90 76/58/90 75/57/90
f 91/73/91 89/71/91 154/134/91
f 91/73/91 154/134/91 148/128/91
f 89/71/92 87/69/92 153/133/92
f 89/71/92 153/133/92 154/134/92
f 154/134/93 153/133/93 75/57/93
f 154/134/93 75/57/93 155/135/93
f 148/128/94 154/134/94 155/135/94
f 148/128/94 155/135/94 132/112/94
f 100/82/95 99/81/95 156/136/95
f 100/82/95 156/136/95 157/137/95
f 99/81/96 98/80/96 150/130/96
f 99/81/96 150/130/96 156/136/96
f 156/136/97 150/130/97 47/29/97
f 156/136/97 47/29/97 44/26/97
f 157/137/98 156/136/98 44/26/98
f 157/137/98 44/26/98 43/25/98
f 158/138/99 61/43/99 159/139/99
f 158/138/99 159/139/99 160/140/99
f 6/5/100 161/141/100 159/139/100
f 6/5/100 159/139/100 65/47/100
f 162/142/101 163/143/101 159/139/101
f 162/142/101 159/139/101 164/144/101
f 165/145/102 166/146/102 159/139/102
f 165/145/102 159/139/102 163/143/102
f 167/147/103 168/148/103 159/139/103
f 167/147/103 159/139/103 169/149/103
f 170/150/104 171/151/104 159/139/104
f 170/150/104 159/139/104 168/148/104
f 172/152/105 173/153/105 159/139/105
f 172/152/105 159/139/105 174/154/105
f 165/145/106 175/155/106 176/156/106
f 165/145/106 176/156/106 166/146/106
f 175/155/107 177/157/107 178/158/107
f 175/155/107 178/158/107 176/156/107
f 176/156/108 178/158/108 179/159/108
f 176/156/108 179/159/108 180/160/108
f 166/146/109 176/156/109 180/160/109
f 166/146/109 180/160/109 167/147/109
f 123/104/110 181/161/110 182/162/110
f 123/104/110 182/162/110 124/105/110
f 181/161/111 170/150/111 183/163/111
f 181/161/111 183/163/111 182/162/111
f 182/162/112 183/163/112 184/164/112
f 182/162/112 184/164/112 185/165/112
f 124/105/113 182/162/113 185/165/113
f 124/105/113 185/165/113 125/106/113
f 186/166/114 187/167/114 188/168/114
f 186/166/114 188/168/114 189/169/114
f 187/167/115 110/91/115 190/170/115
f 187/167/115 190/170/115 188/168/115
f 188/168/116 190/170/116 51/33/116
f 188/168/116 51/33/116 191/171/116
f 189/169/117 188/168/117 191/171/117
f 189/169/117 191/171/117 49/31/117
f 192/172/118 193/173/118 194/174/118
f 192/172/118 194/174/118 115/96/118
f 195/175/119 196/176/119 194/174/119
f 195/175/119 194/174/119 193/173/119
f 197/177/120 198/178/120 194/174/120
f 197/177/120 194/174/120 199/179/120
f 200/180/121 201/181/121 194/174/121
f 200/180/121 194/174/121 202/182/121
f 116/97/122 203/183/122 194/174/122
f 116/97/122 194/174/122 201/181/122
f 118/99/123 117/98/123 204/184/123
f 118/99/123 204/184/123 205/185/123
f 117/98/124 116/97/124 206/186/124
f 117/98/124 206/186/124 204/184/124
f 204/184/125 206/186/125 207/187/125
f 204/184/125 207/187/125 208/188/125
f 205/185/126 204/184/126 208/188/126
f 205/185/126 208/188/126 209/189/126
f 200/180/127 198/178/127 210/190/127
f 200/180/127 210/190/127 211/191/127
f 198/178/128 119/100/128 122/103/128
f 198/178/128 122/103/128 210/190/128
f 210/190/129 122/103/129 127/108/129
f 210/190/129 127/108/129 212/192/129
f 211/191/130 210/190/130 212/192/130
f 211/191/130 212/192/130 213/193/130
f 167/147/131 180/160/131 214/194/131
f 167/147/131 214/194/131 215/195/131
f 180/160/132 179/159/132 216/196/132
f 180/160/132 216/196/132 214/194/132
f 214/194/133 216/196/133 217/197/133
f 214/194/133 217/197/133 218/198/133
f 215/195/134 214/194/134 218/198/134
f 215/195/134 218/198/134 219/199/134
f 58/40/135 220/200/135 7/6/135
f 58/40/135 7/6/135 4/3/135
f 220/200/136 221/201/136 222/202/136
f 220/200/136 222/202/136 7/6/136
f 7/6/137 222/202/137 223/203/137
f 7/6/137 223/203/137 5/4/137
f 224/204/138 225/205/138 226/206/138
f 224/204/138 226/206/138 227/207/138
f 49/31/139 228/208/139 226/206/139
f 49/31/139 226/206/139 225/205/139
f 229/209/140 151/131/140 226/206/140
f 229/209/140 226/206/140 48/30/140
f 128/14/141 230/210/141 226/206/141
f 128/14/141 226/206/141 151/131/141
f 231/211/142 193/173/142 226/206/142
f 231/211/142 226/206/142 230/210/142
f 232/212/143 233/213/143 234/214/143
f 232/212/143 234/214/143 235/215/143
f 233/213/144 221/201/144 236/216/144
f 233/213/144 236/216/144 234/214/144
f 234/214/145 236/216/145 237/217/145
f 234/214/145 237/217/145 238/218/145
f 235/215/146 234/214/146 238/218/146
f 235/215/146 238/218/146 78/60/146
f 221/201/147 239/219/147 240/220/147
f 221/201/147 240/220/147 222/202/147
f 241/221/148 242/222/148 240/220/148
f 241/221/148 240/220/148 243/223/148
f 223/203/149 222/202/149 240/220/149
f 223/203/149 240/220/149 242/222/149
f 177/157/150 175/155/150 244/224/150
f 177/157/150 244/224/150 245/225/150
f 175/155/151 165/145/151 246/226/151
f 175/155/151 246/226/151 244/224/151
f 244/224/152 246/226/152 221/201/152
f 244/224/152 221/201/152 233/213/152
f 245/225/153 244/224/153 233/213/153
f 245/225/153 233/213/153 232/212/153
f 43/25/154 46/28/154 247/227/154
f 43/25/154 247/227/154 248/26/154
f 46/28/155 51/33/155 249/32/155
f 46/28/155 249/32/155 247/227/155
f 247/227/156 249/32/156 250/31/156
f 247/227/156 250/31/156 251/30/156
f 248/26/157 247/227/157 251/30/157
f 248/26/157 251/30/157 252/228/157
f 253/112/158 254/37/158 255/229/158
f 253/112/158 255/229/158 256/135/158
f 257/230/159 258/231/159 255/229/159
f 257/230/159 255/229/159 259/232/159
f 14/5/160 260/41/160 255/229/160
f 14/5/160 255/229/160 261/233/160
f 262/62/161 263/39/161 255/229/161
f 262/62/161 255/229/161 264/234/161
f 265/57/162 266/235/162 255/229/162
f 265/57/162 255/229/162 267/42/162
f 66/48/163 268/51/163 269/236/163
f 66/48/163 269/236/163 67/49/163
f 268/51/164 270/56/164 271/55/164
f 268/51/164 271/55/164 269/236/164
f 269/236/165 271/55/165 272/54/165
f 269/236/165 272/54/165 273/53/165
f 67/49/166 269/236/166 273/53/166
f 67/49/166 273/53/166 70/52/166
f 274/237/167 263/39/167 275/238/167
f 274/237/167 275/238/167 276/239/167
f 263/39/168 277/217/168 278/218/168
f 263/39/168 278/218/168 275/238/168
f 275/238/169 278/218/169 78/60/169
f 275/238/169 78/60/169 39/22/169
f 276/239/170 275/238/170 39/22/170
f 276/239/170 39/22/170 8/7/170
f 272/54/171 279/240/171 280/64/171
f 272/54/171 280/64/171 281/63/171
f 279/240/172 282/69/172 283/241/172
f 279/240/172 283/241/172 280/64/172
f 280/64/173 283/241/173 40/23/173
f 280/64/173 40/23/173 85/67/173
f 281/63/174 280/64/174 85/67/174
f 281/63/174 85/67/174 84/66/174
f 284/72/175 285/73/175 286/71/175
f 284/72/175 286/71/175 287/242/175
f 287/242/176 286/71/176 282/69/176
f 287/242/176 282/69/176 279/240/176
f 271/55/177 287/242/177 279/240/177
f 271/55/177 279/240/177 272/54/177
f 92/74/178 95/77/178 288/243/178
f 92/74/178 288/243/178 289/75/178
f 95/77/179 100/82/179 290/81/179
f 95/77/179 290/81/179 288/243/179
f 288/243/180 290/81/180 291/244/180
f 288/243/180 291/244/180 292/245/180
f 289/75/181 288/243/181 292/245/181
f 289/75/181 292/245/181 293/78/181
f 8/7/182 9/8/182 33/18/182
f 8/7/182 33/18/182 34/19/182
f 294/246/183 30/16/183 32/16/183
f 294/246/183 32/16/183 295/246/183
f 34/19/184 33/18/184 41/24/184
f 34/19/184 41/24/184 40/23/184
f 293/78/185 292/245/185 296/84/185
f 293/78/185 296/84/185 297/83/185
f 292/245/186 291/244/186 298/247/186
f 292/245/186 298/247/186 296/84/186
f 296/84/187 298/247/187 27/15/187
f 296/84/187 27/15/187 299/86/187
f 297/83/188 296/84/188 299/86/188
f 297/83/188 299/86/188 300/248/188
f 300/248/189 299/86/189 301/249/189
f 300/248/189 301/249/189 302/88/189
f 299/86/190 27/15/190 303/250/190
f 299/86/190 303/250/190 301/249/190
f 301/249/191 303/250/191 285/73/191
f 301/249/191 285/73/191 284/72/191
f 110/91/192 113/94/192 304/93/192
f 110/91/192 304/93/192 305/167/192
f 113/94/193 118/99/193 306/251/193
f 113/94/193 306/251/193 304/93/193
f 304/93/194 306/251/194 307/97/194
f 304/93/194 307/97/194 308/96/194
f 305/167/195 304/93/195 308/96/195
f 305/167/195 308/96/195 309/172/195
f 310/252/196 311/253/196 312/102/196
f 310/252/196 312/102/196 313/254/196
f 311/253/197 127/108/197 126/107/197
f 311/253/197 126/107/197 312/102/197
f 312/102/198 126/107/198 125/106/198
f 312/102/198 125/106/198 314/255/198
f 313/254/199 312/102/199 314/255/199
f 313/254/199 314/255/199 315/256/199
f 25/14/200 316/111/200 317/257/200
f 25/14/200 317/257/200 318/109/200
f 316/111/201 319/258/201 320/259/201
f 316/111/201 320/259/201 317/257/201
f 317/257/202 320/259/202 321/113/202
f 317/257/202 321/113/202 322/260/202
f 318/109/203 317/257/203 322/260/203
f 318/109/203 322/260/203 253/112/203
f 136/116/204 323/119/204 324/261/204
f 136/116/204 324/261/204 137/117/204
f 323/119/205 293/78/205 297/83/205
f 323/119/205 297/83/205 324/261/205
f 324/261/206 297/83/206 300/248/206
f 324/261/206 300/248/206 325/121/206
f 137/117/207 324/261/207 325/121/207
f 137/117/207 325/121/207 140/120/207
f 140/120/208 325/121/208 326/123/208
f 140/120/208 326/123/208 142/122/208
f 325/121/209 300/248/209 302/88/209
f 325/121/209 302/88/209 326/123/209
f 326/123/210 302/88/210 270/56/210
f 326/123/210 270/56/210 268/51/210
f 142/122/211 326/123/211 268/51/211
f 142/122/211 268/51/211 66/48/211
f 319/258/212 327/125/212 328/124/212
f 319/258/212 328/124/212 320/259/212
f 327/125/213 310/252/213 313/254/213
f 327/125/213 313/254/213 328/124/213
f 328/124/214 313/254/214 315/256/214
f 328/124/214 315/256/214 329/262/214
f 320/259/215 328/124/215 329/262/215
f 320/259/215 329/262/215 321/113/215
f 25/14/216 24/11/216 21/2/216
f 25/14/216 21/2/216 22/13/216
f 28/12/217 21/2/217 23/2/217
f 28/12/217 23/2/217 29/12/217
f 330/263/218 331/263/218 332/263/218
f 330/263/218 332/263/218 333/263/218
f 22/13/219 21/2/219 28/12/219
f 22/13/219 28/12/219 27/15/219
f 27/15/220 22/13/220 334/264/220
f 27/15/220 334/264/220 303/250/220
f 22/13/221 25/14/221 318/109/221
f 22/13/221 318/109/221 334/264/221
f 334/264/222 318/109/222 253/112/222
f 334/264/222 253/112/222 335/265/222
f 303/250/223 334/264/223 335/265/223
f 303/250/223 335/265/223 285/73/223
f 291/244/224 336/266/224 337/267/224
f 291/244/224 337/267/224 298/247/224
f 336/266/225 252/228/225 338/268/225
f 336/266/225 338/268/225 337/267/225
f 337/267/226 338/268/226 25/14/226
f 337/267/226 25/14/226 22/13/226
f 298/247/227 337/267/227 22/13/227
f 298/247/227 22/13/227 27/15/227
f 282/69/228 339/269/228 340/270/228
f 282/69/228 340/270/228 283/241/228
f 339/269/229 274/237/229 276/239/229
f 339/269/229 276/239/229 340/270/229
f 340/270/230 276/239/230 8/7/230
f 340/270/230 8/7/230 34/19/230
f 283/241/231 340/270/231 34/19/231
f 283/241/231 34/19/231 40/23/231
f 285/73/232 335/265/232 341/271/232
f 285/73/232 341/271/232 286/71/232
f 335/265/233 253/112/233 342/272/233
f 335/265/233 342/272/233 341/271/233
f 341/271/234 342/272/234 274/237/234
f 341/271/234 274/237/234 339/269/234
f 286/71/235 341/271/235 339/269/235
f 286/71/235 339/269/235 282/69/235
f 100/82/236 157/137/236 343/273/236
f 100/82/236 343/273/236 290/81/236
f 157/137/237 43/25/237 248/26/237
f 157/137/237 248/26/237 343/273/237
f 343/273/238 248/26/238 252/228/238
f 343/273/238 252/228/238 336/266/238
f 290/81/239 343/273/239 336/266/239
f 290/81/239 336/266/239 291/244/239
f 344/274/240 345/275/240 346/276/240
f 344/274/240 346/276/240 261/233/240
f 347/277/241 348/278/241 346/276/241
f 347/277/241 346/276/241 349/279/241
f 350/150/242 351/148/242 346/276/242
f 350/150/242 346/276/242 352/151/242
f 353/147/243 354/280/243 346/276/243
f 353/147/243 346/276/243 351/148/243
f 355/145/244 356/143/244 346/276/244
f 355/145/244 346/276/244 357/146/244
f 358/142/245 359/144/245 346/276/245
f 358/142/245 346/276/245 356/143/245
f 14/5/246 261/233/246 346/276/246
f 14/5/246 346/276/246 360/141/246
f 355/145/247 361/281/247 362/282/247
f 355/145/247 362/282/247 363/283/247
f 361/281/248 353/147/248 364/284/248
f 361/281/248 364/284/248 362/282/248
f 362/282/249 364/284/249 179/159/249
f 362/282/249 179/159/249 178/158/249
f 363/283/250 362/282/250 178/158/250
f 363/283/250 178/158/250 177/157/250
f 315/256/251 314/255/251 365/285/251
f 315/256/251 365/285/251 366/286/251
f 314/255/252 125/106/252 185/165/252
f 314/255/252 185/165/252 365/285/252
f 365/285/253 185/165/253 184/164/253
f 365/285/253 184/164/253 367/163/253
f 366/286/254 365/285/254 367/163/254
f 366/286/254 367/163/254 350/150/254
f 37/21/255 36/20/255 30/16/255
f 37/21/255 30/16/255 31/17/255
f 368/263/256 369/263/256 370/263/256
f 368/263/256 370/263/256 371/263/256
f 41/24/257 33/18/257 35/18/257
f 41/24/257 35/18/257 42/24/257
f 8/7/258 39/22/258 30/16/258
f 8/7/258 30/16/258 294/246/258
f 78/60/259 31/17/259 30/16/259
f 78/60/259 30/16/259 39/22/259
f 372/166/260 373/287/260 374/288/260
f 372/166/260 374/288/260 305/167/260
f 373/287/261 250/31/261 375/289/261
f 373/287/261 375/289/261 374/288/261
f 374/288/262 375/289/262 51/33/262
f 374/288/262 51/33/262 190/170/262
f 305/167/263 374/288/263 190/170/263
f 305/167/263 190/170/263 110/91/263
f 309/172/264 308/96/264 376/290/264
f 309/172/264 376/290/264 377/291/264
f 307/97/265 378/181/265 376/290/265
f 307/97/265 376/290/265 379/183/265
f 380/180/266 381/292/266 376/290/266
f 380/180/266 376/290/266 378/181/266
f 382/293/267 383/176/267 376/290/267
f 382/293/267 376/290/267 384/294/267
f 385/211/268 386/173/268 376/290/268
f 385/211/268 376/290/268 387/295/268
f 118/99/269 205/185/269 388/296/269
f 118/99/269 388/296/269 306/251/269
f 205/185/270 209/189/270 389/188/270
f 205/185/270 389/188/270 388/296/270
f 388/296/271 389/188/271 390/187/271
f 388/296/271 390/187/271 391/186/271
f 306/251/272 388/296/272 391/186/272
f 306/251/272 391/186/272 307/97/272
f 380/180/273 392/191/273 393/297/273
f 380/180/273 393/297/273 394/178/273
f 392/191/274 213/193/274 212/192/274
f 392/191/274 212/192/274 393/297/274
f 393/297/275 212/192/275 127/108/275
f 393/297/275 127/108/275 311/253/275
f 394/178/276 393/297/276 311/253/276
f 394/178/276 311/253/276 310/252/276
f 353/147/277 395/195/277 396/298/277
f 353/147/277 396/298/277 364/284/277
f 395/195/278 397/199/278 398/198/278
f 395/195/278 398/198/278 396/298/278
f 396/298/279 398/198/279 217/197/279
f 396/298/279 217/197/279 216/196/279
f 364/284/280 396/298/280 216/196/280
f 364/284/280 216/196/280 179/159/280
f 399/40/281 11/9/281 13/10/281
f 399/40/281 13/10/281 400/299/281
f 13/10/282 12/4/282 401/203/282
f 13/10/282 401/203/282 402/300/282
f 400/299/283 13/10/283 402/300/283
f 400/299/283 402/300/283 403/201/283
f 404/204/284 405/207/284 406/301/284
f 404/204/284 406/301/284 373/287/284
f 385/211/285 407/210/285 406/301/285
f 385/211/285 406/301/285 377/291/285
f 25/14/286 408/302/286 406/301/286
f 25/14/286 406/301/286 409/303/286
f 252/228/287 251/30/287 406/301/287
f 252/228/287 406/301/287 338/268/287
f 250/31/288 410/169/288 406/301/288
f 250/31/288 406/301/288 411/304/288
f 232/212/289 235/215/289 412/214/289
f 232/212/289 412/214/289 413/213/289
f 235/215/290 78/60/290 414/305/290
f 235/215/290 414/305/290 412/214/290
f 412/214/291 414/305/291 399/40/291
f 412/214/291 399/40/291 415/306/291
f 413/213/292 412/214/292 415/306/292
f 413/213/292 415/306/292 403/201/292
f 403/201/293 402/300/293 416/220/293
f 403/201/293 416/220/293 417/219/293
f 401/203/294 418/222/294 416/220/294
f 401/203/294 416/220/294 419/202/294
f 420/221/295 421/223/295 416/220/295
f 420/221/295 416/220/295 418/222/295
f 177/157/296 245/225/296 422/307/296
f 177/157/296 422/307/296 423/308/296
f 245/225/297 232/212/297 413/213/297
f 245/225/297 413/213/297 422/307/297
f 422/307/298 413/213/298 403/201/298
f 422/307/298 403/201/298 424/226/298
f 423/308/299 422/307/299 424/226/299
f 423/308/299 424/226/299 355/145/299
f 425/263/300 426/263/301 427/263/302
f 425/263/300 427/263/302 428/263/303
f 429/263/304 430/263/305 431/263/306
f 429/263/304 431/263/306 432/263/307
f 427/263/302 433/263/308 434/263/309
f 427/263/302 434/263/309 428/263/303
f 435/263/310 436/263/311 437/263/312
f 435/263/310 437/263/312 438/263/313
f 439/263/314 430/263/305 429/263/304
f 439/263/314 429/263/304 440/263/315
f 430/263/305 439/263/314 441/263/316
f 430/263/305 441/263/316 442/263/317
f 427/263/302 426/263/301 443/263/318
f 427/263/302 443/263/318 444/263/319
f 436/263/311 433/263/308 445/263/320
f 436/263/311 445/263/320 446/263/321
f 439/263/314 437/263/312 447/263/322
f 439/263/314 447/263/322 441/263/316
f 431/263/306 430/263/305 442/263/317
f 431/263/306 442/263/317 448/263/323
f 426/263/301 431/263/306 448/263/323
f 426/263/301 448/263/323 443/263/318
f 433/263/308 427/263/302 444/263/319
f 433/263/308 444/263/319 445/263/320
f 437/263/312 436/263/311 446/263/321
f 437/263/312 446/263/321 447/263/322
f 449/263/324 450/263/325 451/263/326
f 449/263/324 451/263/326 452/263/327
f 453/263/328 454/263/329 455/263/330
f 453/263/328 455/263/330 456/263/331
f 457/263/332 450/263/325 449/263/324
f 457/263/332 449/263/324 458/263/333
f 459/263/334 460/263/335 461/263/336
f 459/263/334 461/263/336 462/263/337
f 456/263/331 455/263/330 463/263/338
f 456/263/331 463/263/338 464/263/339
f 455/263/330 465/263/340 466/263/341
f 455/263/330 466/263/341 463/263/338
f 450/263/325 467/263/342 468/263/343
f 450/263/325 468/263/343 451/263/326
f 461/263/336 469/263/344 470/263/345
f 461/263/336 470/263/345 457/263/332
f 463/263/338 466/263/341 471/263/346
f 463/263/338 471/263/346 460/263/335
f 454/263/329 472/263/347 465/263/340
f 454/263/329 465/263/340 455/263/330
f 451/263/326 468/263/343 472/263/347
f 451/263/326 472/263/347 454/263/329
f 457/263/332 470/263/345 467/263/342
f 457/263/332 467/263/342 450/263/325
f 460/263/335 471/263/346 469/263/344
f 460/263/335 469/263/344 461/263/336
f 3/2/348 473/1/348 474/12/348
f 3/2/348 474/12/348 20/12/348
f 17/11/349 475/11/349 473/1/349
f 17/11/349 473/1/349 3/2/349
f 476/263/350 477/263/350 478/263/350
f 476/263/350 478/263/350 479/263/350
f 16/11/351 2/2/351 3/2/351
f 16/11/351 3/2/351 17/11/351
f 480/263/352 481/263/352 482/263/352
f 480/263/352 482/263/352 483/263/352
f 484/263/353 485/263/353 477/263/353
f 484/263/353 477/263/353 476/263/353
f 483/263/354 482/263/354 485/263/354
f 483/263/354 485/263/354 484/263/354
f 478/263/355 486/263/355 487/263/355
f 478/263/355 487/263/355 488/263/355
f 481/263/356 489/263/356 487/263/356
f 481/263/356 487/263/356 486/263/356
f 480/263/357 483/263/357 484/263/357
f 480/263/357 484/263/357 490/263/357
f 476/263/358 479/263/358 490/263/358
f 476/263/358 490/263/358 484/263/358
f 26/11/359 23/2/359 491/1/359
f 26/11/359 491/1/359 492/11/359
f 23/2/360 29/12/360 493/12/360
f 23/2/360 493/12/360 491/1/360
f 494/263/361 495/263/361 331/263/361
f 494/263/361 331/263/361 330/263/361
f 21/2/362 24/11/362 26/11/362
f 21/2/362 26/11/362 23/2/362
f 496/263/363 497/263/363 498/263/363
f 496/263/363 498/263/363 499/263/363
f 499/263/364 498/263/364 495/263/364
f 499/263/364 495/263/364 494/263/364
f 500/263/365 332/263/365 501/263/365
f 500/263/365 501/263/365 502/263/365
f 497/263/366 503/263/366 502/263/366
f 497/263/366 502/263/366 501/263/366
f 494/263/367 330/263/367 333/263/367
f 494/263/367 333/263/367 504/263/367
f 496/263/368 499/263/368 494/263/368
f 496/263/368 494/263/368 504/263/368
f 10/8/369 35/18/369 505/309/369
f 10/8/369 505/309/369 506/7/369
f 35/18/370 42/24/370 507/310/370
f 35/18/370 507/310/370 505/309/370
f 508/311/371 38/20/371 32/16/371
f 508/311/371 32/16/371 509/312/371
f 506/7/372 510/313/372 32/16/372
f 506/7/372 32/16/372 511/314/372
f 30/16/373 36/20/373 38/20/373
f 30/16/373 38/20/373 32/16/373
f 512/263/374 513/263/374 514/263/374
f 512/263/374 514/263/374 515/263/374
f 516/263/375 517/263/375 518/263/375
f 516/263/375 518/263/375 519/263/375
f 519/263/376 518/263/376 369/263/376
f 519/263/376 369/263/376 368/263/376
f 33/18/377 9/8/377 10/8/377
f 33/18/377 10/8/377 35/18/377
f 520/263/378 521/263/378 517/263/378
f 520/263/378 517/263/378 516/263/378
f 371/263/379 370/263/379 513/263/379
f 371/263/379 513/263/379 512/263/379
f 521/263/380 522/263/380 523/263/380
f 521/263/380 523/263/380 524/263/380
f 525/263/381 526/263/381 524/263/381
f 525/263/381 524/263/381 523/263/381
f 527/263/382 528/263/382 524/263/382
f 527/263/382 524/263/382 526/263/382
f 528/263/383 527/263/383 529/263/383
f 528/263/383 529/263/383 530/263/383
f 514/263/384 530/263/384 529/263/384
f 514/263/384 529/263/384 531/263/384
f 520/263/385 516/263/385 519/263/385
f 520/263/385 519/263/385 532/263/385
f 368/263/385 533/263/385 532/263/385
f 368/263/385 532/263/385 519/263/385
f 533/263/385 368/263/385 371/263/385
f 533/263/385 371/263/385 534/263/385
f 512/263/385 515/263/385 534/263/385
f 512/263/385 534/263/385 371/263/385
f 73/55/386 535/315/386 74/56/386
f 535/315/386 73/55/386 536/316/386
f 536/316/386 73/55/386 537/317/386
f 537/317/386 73/55/386 538/318/386
f 538/318/386 73/55/386 88/70/386
f 539/319/386 90/72/386 540/320/386
f 90/72/386 539/319/386 88/70/386
f 88/70/386 539/319/386 541/321/386
f 88/70/386 541/321/386 542/322/386
f 88/70/386 542/322/386 538/318/386
f 74/56/387 543/323/387 107/88/387
f 543/323/387 74/56/387 544/324/387
f 544/324/387 74/56/387 545/325/387
f 107/88/387 90/72/387 108/89/387
f 90/72/387 107/88/387 546/326/387
f 546/326/387 107/88/387 543/323/387
f 90/72/387 546/326/387 540/320/387
f 284/72/388 547/319/388 548/320/388
f 547/319/388 284/72/388 287/242/388
f 547/319/388 287/242/388 549/327/388
f 549/327/388 287/242/388 550/328/388
f 550/328/388 287/242/388 551/329/388
f 552/315/388 271/55/388 270/56/388
f 271/55/388 552/315/388 553/316/388
f 271/55/388 553/316/388 554/330/388
f 271/55/388 554/330/388 551/329/388
f 271/55/388 551/329/388 287/242/388
f 284/72/389 302/88/389 301/249/389
f 302/88/389 284/72/389 555/331/389
f 302/88/389 555/331/389 556/323/389
f 555/331/389 284/72/389 548/320/389
f 556/323/389 270/56/389 302/88/389
f 270/56/389 556/323/389 557/332/389
f 270/56/389 557/332/389 552/315/389
f 433/263/308 558/263/390 434/263/309
f 558/263/390 433/263/308 436/263/311
f 558/263/390 436/263/311 435/263/310
f 439/263/314 438/263/313 437/263/312
f 438/263/313 439/263/314 559/263/391
f 559/263/391 439/263/314 440/263/315
f 425/263/300 431/263/306 426/263/301
f 431/263/306 425/263/300 560/263/392
f 431/263/306 560/263/392 432/263/307
f 561/263/393 457/263/332 458/263/333
f 457/263/332 561/263/393 461/263/336
f 461/263/336 561/263/393 462/263/337
f 459/263/334 463/263/338 460/263/335
f 463/263/338 459/263/334 562/263/394
f 463/263/338 562/263/394 464/263/339
f 563/263/395 454/263/329 453/263/328
f 454/263/329 563/263/395 452/263/327
f 454/263/329 452/263/327 451/263/326
# Vertices: 563, normals: 395, texture coordinates: 332, faces: 768

o obj2
v 1.29266837 7.92221768 0.83894547
v 1.28182878 7.98983465 1.00326067
v 1.34853079 7.87279212 1.00429829
v 1.353578 7.84130655 0.9277862
v 1.33265417 7.59572825 0.83956749
v 1.31372086 7.75897248 0.77114158
v 1.36338094 7.76529394 0.89621399
v 1.37219707 7.68927991 0.9280759
v 1.32753794 7.59572832 1.16845559
v 1.33837741 7.5281104 1.00414026
v 1.37486212 7.65779389 1.00470792
v 1.36981479 7.68927994 1.08122001
v 1.28755202 7.92221775 1.16783351
v 1.30648533 7.75897257 1.23625942
v 1.36001185 7.76529398 1.11279246
v 1.35119572 7.84130658 1.08093031
v -1.29266963 7.92221745 0.83894547
v -1.35357961 7.84130631 0.92778626
v -1.34853217 7.87279188 1.00429829
v -1.28183042 7.98983442 1.00326067
v -1.3326555 7.59572802 0.83956749
v -1.37219841 7.68927919 0.9280759
v -1.36338254 7.76529274 0.89621399
v -1.31372234 7.75897225 0.77114158
v -1.32753903 7.59572809 1.16845559
v -1.36981602 7.6892797 1.08122013
v -1.37486357 7.65779365 1.00470792
v -1.33837873 7.52810969 1.00414026
v -1.28755329 7.92221752 1.16783363
v -1.35119709 7.84130634 1.08093043
v -1.36001309 7.76529279 1.11279246
v -1.30648693 7.75897234 1.23625942
vn -0.80233 -0.36187 0.47467
vn -0.77766 0.01209 0.62857
vn -0.93317 0.0145 0.35915
vn -0.94449 -0.15717 0.28849
vn -0.89333 -0.36046 -0.26839
vn -0.85024 -0.5162 0.10312
vn -0.96649 -0.22801 0.11793
vn -0.98628 -0.1565 -0.05261
vn -0.8817 0.38805 -0.26838
vn -0.90636 0.01407 -0.42227
vn -0.99225 0.01541 -0.12326
vn -0.98093 0.18712 -0.05262
vn -0.79069 0.38665 0.47467
vn -0.83378 0.54238 0.10312
vn -0.95893 0.25797 0.11792
vn -0.93915 0.18647 0.2885
vn 0.80233 -0.36187 0.47467
vn 0.94449 -0.15717 0.28849
vn 0.93317 0.0145 0.35915
vn 0.77766 0.01209 0.62857
vn 0.89333 -0.36046 -0.26839
vn 0.98628 -0.1565 -0.05261
vn 0.96649 -0.22801 0.11793
vn 0.85024 -0.5162 0.10312
vn 0.8817 0.38805 -0.26838
vn 0.98093 0.18712 -0.05262
vn 0.99225 0.01541 -0.12326
vn 0.90636 0.0141 -0.42227
vn 0.79069 0.38665 0.47467
vn 0.93915 0.18647 0.2885
vn 0.95893 0.25797 0.11792
vn 0.83378 0.54238 0.10312
vt 0 1
usemtl mat1
f 564/333/396 565/333/397 566/333/398
f 564/333/396 566/333/398 567/333/399
f 568/333/400 569/333/401 570/333/402
f 568/333/400 570/333/402 571/333/403
f 572/333/404 573/333/405 574/333/406
f 572/333/404 574/333/406 575/333/407
f 576/333/408 577/333/409 578/333/410
f 576/333/408 578/333/410 579/333/411
f 569/333/401 564/333/396 567/333/399
f 569/333/401 567/333/399 570/333/402
f 573/333/405 568/333/400 571/333/403
f 573/333/405 571/333/403 574/333/406
f 577/333/409 572/333/404 575/333/407
f 577/333/409 575/333/407 578/333/410
f 565/333/397 576/333/408 579/333/411
f 565/333/397 579/333/411 566/333/398
f 580/333/412 581/333/413 582/333/414
f 580/333/412 582/333/414 583/333/415
f 584/333/416 585/333/417 586/333/418
f 584/333/416 586/333/418 587/333/419
f 588/333/420 589/333/421 590/333/422
f 588/333/420 590/333/422 591/333/423
f 592/333/424 593/333/425 594/333/426
f 592/333/424 594/333/426 595/333/427
f 587/333/419 586/333/418 581/333/413
f 587/333/419 581/333/413 580/333/412
f 591/333/423 590/333/422 585/333/417
f 591/333/423 585/333/417 584/333/416
f 595/333/427 594/333/426 589/333/421
f 595/333/427 589/333/421 588/333/420
f 583/333/415 582/333/414 593/333/425
f 583/333/415 593/333/425 592/333/424
f 567/333/399 571/333/403 570/333/402
f 571/333/403 567/333/399 566/333/398
f 571/333/403 566/333/398 574/333/406
f 574/333/406 566/333/398 579/333/411
f 574/333/406 579/333/411 575/333/407
f 575/333/407 579/333/411 578/333/410
f 585/333/417 581/333/413 586/333/418
f 581/333/413 585/333/417 582/333/414
f 582/333/414 585/333/417 590/333/422
f 582/333/414 590/333/422 593/333/425
f 593/333/425 590/333/422 589/333/421
f 593/333/425 589/333/421 594/333/426
# Vertices: 32, normals: 32, texture coordinates: 1, faces: 44

